<svg width="142" height="166" viewBox="0 0 142 166" fill="none" xmlns="http://www.w3.org/2000/svg">
<path d="M55 64C47.4956 73.0899 46.2058 98.7971 47.3784 113" stroke="black" stroke-width="10" stroke-linecap="round"/>
<path d="M93.5339 92.2614L72.7339 92.945C48.8182 93.731 28.4699 75.663 26.4211 51.8223L25.7895 44.4722C25.3513 39.3729 26.4887 34.262 29.0481 29.8298L34.8104 19.8513C40.1173 10.6611 49.9237 5 60.5361 5H61.4835C71.6151 5 81.1757 9.69146 87.375 17.7051C93.8487 26.0736 102.004 32.9931 111.314 38.018L117.149 41.1668C123.217 44.4418 127 50.7817 127 57.6774C127 76.3455 112.192 91.6483 93.5339 92.2614Z" fill="#F9886D" stroke="black" stroke-width="10"/>
<path d="M100.652 74.6416C107.783 81.772 109.008 101.938 107.894 113.079" stroke="black" stroke-width="10" stroke-linecap="round"/>
<path d="M74 64C81.5044 73.0899 82.7942 98.7971 81.6216 113" stroke="black" stroke-width="10" stroke-linecap="round"/>
<rect x="26.5488" y="118.636" width="110.326" height="42.3641" rx="10" fill="white" stroke="black" stroke-width="10"/>
<path d="M44.4443 37.3329C62.4035 37.3329 63.9999 26.5574 63.9999 17.7773" stroke="black" stroke-width="10" stroke-linecap="round"/>
<path d="M26.6667 37.3329C8.70756 37.3329 7.11119 26.5574 7.11119 17.7773" stroke="black" stroke-width="10" stroke-linecap="round"/>
<path d="M24.5926 31.666H42.074C48.9674 31.666 54.5555 37.2542 54.5555 44.1475V52.8882C54.5555 64.6089 45.054 74.1105 33.3333 74.1105C21.6126 74.1105 12.1111 64.6089 12.1111 52.8882V44.1475C12.1111 37.2542 17.6992 31.666 24.5926 31.666Z" fill="#F9886D" stroke="black" stroke-width="10"/>
<path d="M15 89.2217H26.7778C32.3006 89.2217 36.7778 84.7445 36.7778 79.2217V72.4439C36.7778 64.1596 30.0621 57.4439 21.7778 57.4439H20C11.7157 57.4439 5 64.1596 5 72.4439V79.2217C5 84.7445 9.47715 89.2217 15 89.2217Z" fill="#F9886D" stroke="black" stroke-width="10"/>
</svg>
