<svg width="51" height="56" viewBox="0 0 51 56" fill="none" xmlns="http://www.w3.org/2000/svg">
<rect x="5.00819" y="42.0122" width="45.8836" height="12.8288" transform="rotate(-50 5.00819 42.0122)" fill="#FFDB58" stroke="black" stroke-width="5" stroke-linejoin="round"/>
<rect x="31.974" y="9.71439" width="10.5346" height="12.8288" transform="rotate(-50 31.974 9.71439)" fill="#F9886D" stroke="black" stroke-width="5" stroke-linejoin="round"/>
<path d="M2.71456 49.9438C2.35995 50.8746 2.59178 51.9272 3.30466 52.6229C4.01754 53.3186 5.07541 53.5248 5.99736 53.1476L15.5659 49.2332C16.372 48.9035 16.9484 48.1779 17.0873 47.3181C17.2262 46.4582 16.9076 45.5881 16.2463 45.0212L10.1572 39.8021C9.5394 39.2725 8.70251 39.0768 7.91392 39.2774C7.12532 39.478 6.48369 40.0498 6.19402 40.8102L2.71456 49.9438Z" fill="#F9886D" stroke="black" stroke-width="5" stroke-linejoin="round"/>
</svg>
