<svg width="213" height="212" viewBox="0 0 213 212" fill="none" xmlns="http://www.w3.org/2000/svg">
<path d="M190.178 103.259C189.058 104.939 189.058 107.127 190.178 108.806L206.496 133.284C206.819 133.845 207.02 134.467 207.088 135.111C207.159 135.786 207.081 136.469 206.86 137.111C206.639 137.753 206.279 138.339 205.807 138.827C205.335 139.315 204.761 139.693 204.127 139.935C204.093 139.948 204.06 139.961 204.026 139.975L175.578 151.547C173.836 152.256 172.639 153.882 172.48 155.756L170.069 184.204C170.067 184.232 170.065 184.26 170.063 184.288C170.059 184.348 170.056 184.409 170.054 184.469C170.032 185.163 169.869 185.846 169.575 186.475C169.32 187.021 168.971 187.518 168.545 187.942C168.036 188.263 167.468 188.483 166.873 188.588C166.19 188.709 165.488 188.675 164.82 188.489C164.711 188.458 164.601 188.432 164.49 188.409L134.113 182.141C132.384 181.784 130.595 182.365 129.406 183.67L109.637 205.368C109.619 205.388 109.601 205.408 109.583 205.428C109.148 205.922 108.612 206.318 108.011 206.589C107.411 206.86 106.759 207 106.101 207C105.442 207 104.791 206.86 104.19 206.589C103.59 206.318 103.054 205.922 102.618 205.428C102.6 205.408 102.582 205.388 102.564 205.368L82.7951 183.67C81.6062 182.365 79.8174 181.784 78.0886 182.141L47.7118 188.409C47.6007 188.432 47.4904 188.458 47.3811 188.489C46.713 188.675 46.0116 188.709 45.3286 188.588C44.7337 188.483 44.1658 188.263 43.6564 187.942C43.23 187.518 42.881 187.021 42.626 186.475C42.3323 185.846 42.1696 185.163 42.1477 184.469C42.1449 184.381 42.1398 184.292 42.1323 184.204L39.7214 155.756C39.5626 153.882 38.3655 152.256 36.6233 151.547L8.17517 139.975C8.14184 139.961 8.10837 139.948 8.07476 139.935C7.44034 139.693 6.86678 139.315 6.39452 138.827C5.92224 138.339 5.56275 137.753 5.34137 137.111C5.12 136.469 5.04213 135.786 5.11326 135.111C5.18109 134.467 5.38286 133.844 5.70522 133.284L22.0235 108.806C23.1432 107.127 23.1432 104.939 22.0235 103.259L5.67672 78.7389C5.32988 78.1689 5.10982 77.5307 5.03181 76.8676C4.95151 76.1851 5.02371 75.4932 5.24322 74.842C5.2595 74.7937 5.27504 74.7451 5.28983 74.6964C5.46546 74.1174 5.78117 73.5906 6.209 73.1628C6.63683 72.735 7.16357 72.4193 7.74256 72.2436C7.88903 72.1992 8.03338 72.1481 8.17517 72.0904L36.6233 60.5183C38.3655 59.8096 39.5626 58.1831 39.7214 56.309L42.1323 27.8609C42.1398 27.7728 42.1449 27.6846 42.1477 27.5963C42.1696 26.9021 42.3323 26.2196 42.626 25.5903C42.8809 25.0439 43.23 24.5475 43.6564 24.1234C44.1658 23.8018 44.7337 23.5819 45.3286 23.4769C46.0117 23.3563 46.713 23.3903 47.3811 23.5764C47.4904 23.6068 47.6007 23.6335 47.7118 23.6564L78.0886 29.9247C79.8365 30.2853 81.6442 29.687 82.8317 28.3547L102.422 6.37507C103.441 5.48976 104.747 5 106.101 5C107.455 5 108.761 5.48976 109.779 6.37507L129.37 28.3547C130.557 29.687 132.365 30.2853 134.113 29.9247L164.49 23.6564C164.601 23.6335 164.711 23.6068 164.82 23.5764C165.488 23.3903 166.19 23.3563 166.873 23.4769C167.468 23.5819 168.036 23.8018 168.545 24.1234C168.971 24.5475 169.32 25.0439 169.575 25.5903C169.869 26.2196 170.032 26.9021 170.054 27.5963C170.057 27.6846 170.062 27.7728 170.069 27.8609L172.48 56.309C172.639 58.1831 173.836 59.8096 175.578 60.5183L204.026 72.0904C204.168 72.1481 204.312 72.1992 204.459 72.2436C205.038 72.4193 205.565 72.735 205.992 73.1628C206.42 73.5906 206.736 74.1174 206.912 74.6964C206.926 74.7451 206.942 74.7937 206.958 74.842C207.178 75.4932 207.25 76.185 207.17 76.8676C207.092 77.5307 206.872 78.1689 206.525 78.7389L190.178 103.259Z" fill="#FFDB58" stroke="black" stroke-width="10" stroke-linejoin="round"/>
</svg>
