<svg width="260" height="272" viewBox="0 0 260 272" fill="none" xmlns="http://www.w3.org/2000/svg">
<rect x="120.911" y="181.599" width="17.309" height="85.278" fill="white" stroke="black" stroke-width="10"/>
<path d="M121.34 25C125.189 18.3333 134.811 18.3333 138.66 25L225.263 175C229.112 181.667 224.301 190 216.603 190H43.3975C35.6995 190 30.8882 181.667 34.7372 175L121.34 25Z" fill="#FFDB58" stroke="black" stroke-width="10"/>
<path d="M97.2567 137.123C96.4567 134.563 95.7633 132.243 95.1767 130.163C94.6433 128.03 94.1633 126.083 93.7367 124.323C93.31 122.563 92.9633 120.963 92.6967 119.523C92.43 118.083 92.2167 116.777 92.0567 115.603C91.8967 114.377 91.8167 113.23 91.8167 112.163C91.8167 109.017 92.6167 106.563 94.2167 104.803C95.8167 103.043 98.03 102.163 100.857 102.163C103.683 102.163 105.897 103.043 107.497 104.803C109.097 106.563 109.897 109.017 109.897 112.163C109.897 113.177 109.817 114.297 109.657 115.523C109.497 116.75 109.283 118.083 109.017 119.523C108.75 120.963 108.403 122.563 107.977 124.323C107.55 126.083 107.043 128.03 106.457 130.163C105.923 132.243 105.283 134.563 104.537 137.123H97.2567ZM100.857 158.323C98.03 158.323 95.7633 157.497 94.0567 155.843C92.35 154.137 91.4967 151.977 91.4967 149.363C91.4967 146.697 92.35 144.537 94.0567 142.883C95.7633 141.23 98.03 140.403 100.857 140.403C103.683 140.403 105.95 141.23 107.657 142.883C109.363 144.537 110.217 146.697 110.217 149.363C110.217 151.977 109.363 154.137 107.657 155.843C105.95 157.497 103.683 158.323 100.857 158.323ZM126.554 137.123C125.754 134.563 125.06 132.243 124.474 130.163C123.94 128.03 123.46 126.083 123.034 124.323C122.607 122.563 122.26 120.963 121.994 119.523C121.727 118.083 121.514 116.777 121.354 115.603C121.194 114.377 121.114 113.23 121.114 112.163C121.114 109.017 121.914 106.563 123.514 104.803C125.114 103.043 127.327 102.163 130.154 102.163C132.98 102.163 135.194 103.043 136.794 104.803C138.394 106.563 139.194 109.017 139.194 112.163C139.194 113.177 139.114 114.297 138.954 115.523C138.794 116.75 138.58 118.083 138.314 119.523C138.047 120.963 137.7 122.563 137.274 124.323C136.847 126.083 136.34 128.03 135.754 130.163C135.22 132.243 134.58 134.563 133.834 137.123H126.554ZM130.154 158.323C127.327 158.323 125.06 157.497 123.354 155.843C121.647 154.137 120.794 151.977 120.794 149.363C120.794 146.697 121.647 144.537 123.354 142.883C125.06 141.23 127.327 140.403 130.154 140.403C132.98 140.403 135.247 141.23 136.954 142.883C138.66 144.537 139.514 146.697 139.514 149.363C139.514 151.977 138.66 154.137 136.954 155.843C135.247 157.497 132.98 158.323 130.154 158.323ZM155.85 137.123C155.05 134.563 154.357 132.243 153.77 130.163C153.237 128.03 152.757 126.083 152.33 124.323C151.904 122.563 151.557 120.963 151.29 119.523C151.024 118.083 150.81 116.777 150.65 115.603C150.49 114.377 150.41 113.23 150.41 112.163C150.41 109.017 151.21 106.563 152.81 104.803C154.41 103.043 156.624 102.163 159.45 102.163C162.277 102.163 164.49 103.043 166.09 104.803C167.69 106.563 168.49 109.017 168.49 112.163C168.49 113.177 168.41 114.297 168.25 115.523C168.09 116.75 167.877 118.083 167.61 119.523C167.344 120.963 166.997 122.563 166.57 124.323C166.144 126.083 165.637 128.03 165.05 130.163C164.517 132.243 163.877 134.563 163.13 137.123H155.85ZM159.45 158.323C156.624 158.323 154.357 157.497 152.65 155.843C150.944 154.137 150.09 151.977 150.09 149.363C150.09 146.697 150.944 144.537 152.65 142.883C154.357 141.23 156.624 140.403 159.45 140.403C162.277 140.403 164.544 141.23 166.25 142.883C167.957 144.537 168.81 146.697 168.81 149.363C168.81 151.977 167.957 154.137 166.25 155.843C164.544 157.497 162.277 158.323 159.45 158.323Z" fill="black"/>
</svg>
