<svg width="48" height="60" viewBox="0 0 48 60" fill="none" xmlns="http://www.w3.org/2000/svg">
<path d="M34.1905 42.1161C35.4644 42.6786 36.7728 42.9311 38.0352 42.9311C43.0964 42.9311 47.6182 38.8564 47.6068 33.3241L47.5494 10.3682C47.5264 4.87031 43.0161 0.818604 37.9778 0.818604C36.6925 0.818604 35.3726 1.0826 34.0873 1.6565L15.8164 9.78286V34.0587L19.948 35.8722L25.7781 38.4317L34.1905 42.1161Z" fill="#CC0518"/>
<path d="M17.6414 41.1291L12.5229 38.8794H10.3193L14.91 55.6601C15.4494 57.7261 17.3086 59.1494 19.4203 59.1494C19.4892 59.1494 19.5581 59.1494 19.6269 59.1379C22.5994 59.0117 24.6881 56.1766 23.9421 53.2957L20.9697 42.5868L17.6414 41.1291Z" fill="#CC0518"/>
<path d="M-0.00970035 14.1445L0.0247282 29.8004C0.0362049 30.7301 0.403453 31.568 1.02319 32.1763C1.49374 32.6469 2.10199 32.9798 2.79059 33.106C2.99717 33.1405 3.20376 33.1634 3.41034 33.1634H10.0783V10.7585H3.35295C1.48226 10.7815 -0.021177 12.2851 -0.00970035 14.1445Z" fill="#CC0518"/>
</svg>
