<svg width="135" height="161" viewBox="0 0 135 161" fill="none" xmlns="http://www.w3.org/2000/svg">
<path d="M118.601 36.6812C108.701 25.2348 95.155 17.3654 80.3894 14.5038V13.263C80.3894 6.17611 74.6174 0.408203 67.5254 0.408203C60.4334 0.408203 54.6614 6.17611 54.6614 13.263V14.5038C39.9069 17.3654 26.3493 25.2348 16.4608 36.6812C5.88997 48.91 0.0620117 64.5482 0.0620117 80.6894C0.0620117 96.8306 5.88997 112.458 16.4608 124.698C26.3493 136.144 39.9069 144.013 54.6614 146.875V148.105C54.6614 155.191 60.4334 160.959 67.5254 160.959C74.6174 160.959 80.3894 155.191 80.3894 148.105V146.875C95.155 144.013 108.701 136.144 118.601 124.698C129.172 112.469 135 96.8306 135 80.6894C135 64.5482 129.172 48.91 118.601 36.6812Z" fill="white"/>
<path d="M77.5927 16.8399V13.2629C77.5927 7.70741 73.0847 3.20264 67.5253 3.20264C61.9658 3.20264 57.4578 7.70741 57.4578 13.2629V16.8399C26.5617 21.6912 2.8584 48.474 2.8584 80.6893C2.8584 112.905 26.5617 139.676 57.4578 144.527V148.104C57.4578 153.66 61.9658 158.165 67.5253 158.165C73.0847 158.165 77.5927 153.66 77.5927 148.104V144.527C108.489 139.676 132.203 112.905 132.203 80.6893C132.203 48.474 108.489 21.6912 77.5927 16.8399Z" fill="#1D161E"/>
<path d="M118.527 36.2992C108.628 24.8445 95.0834 16.9694 80.3192 14.1058V12.8641C80.3192 5.77207 74.5478 0 67.4565 0C60.3653 0 54.5938 5.77207 54.5938 12.8641V14.1058C39.8408 16.9694 26.2847 24.8445 16.3972 36.2992C5.82737 48.5369 0 64.1863 0 80.3392C0 96.4921 5.82737 112.13 16.3972 124.379C26.2847 135.834 39.8408 143.709 54.5938 146.573V147.803C54.5938 154.895 60.3653 160.667 67.4565 160.667C74.5478 160.667 80.3192 154.895 80.3192 147.803V146.573C95.0834 143.709 108.628 135.834 118.527 124.379C129.097 112.142 134.924 96.4921 134.924 80.3392C134.924 64.1863 129.097 48.5369 118.527 36.2992Z" fill="white"/>
<path d="M77.5231 16.4435V12.864C77.5231 7.30442 73.0156 2.79639 67.4567 2.79639C61.8977 2.79639 57.3902 7.30442 57.3902 12.864V16.4435C26.4973 21.2983 2.79639 48.1004 2.79639 80.339C2.79639 112.578 26.4973 139.369 57.3902 144.223V147.803C57.3902 153.362 61.8977 157.87 67.4567 157.87C73.0156 157.87 77.5231 153.362 77.5231 147.803V144.223C108.416 139.369 132.128 112.578 132.128 80.339C132.128 48.1004 108.416 21.2983 77.5231 16.4435Z" fill="black"/>
<path d="M124.858 78.4597C124.858 78.2584 124.835 78.0682 124.791 77.8781C124.276 65.5621 119.858 54.2528 112.744 45.1249C112.621 44.9124 112.465 44.711 112.286 44.5432C102.309 32.0594 87.2426 23.8152 70.2527 22.9874V12.8639C70.2527 11.3202 69 10.0674 67.4564 10.0674C65.9129 10.0674 64.6602 11.3202 64.6602 12.8639V22.9986C47.6702 23.8152 32.6041 32.0594 22.6271 44.5432C22.4481 44.711 22.3027 44.9124 22.1685 45.1249C15.066 54.2528 10.648 65.5621 10.1223 77.8781C10.0775 78.0682 10.0552 78.2584 10.0552 78.4597C10.0552 78.594 10.0775 78.717 10.0887 78.8401C10.0775 79.3323 10.0552 79.8356 10.0552 80.3278C10.0552 93.5835 14.5851 105.799 22.1685 115.531C22.2915 115.743 22.4481 115.945 22.6271 116.112C32.6041 128.596 47.6702 136.84 64.6602 137.668V147.803C64.6602 149.347 65.9129 150.599 67.4564 150.599C69 150.599 70.2527 149.347 70.2527 147.803V137.668C87.2426 136.852 102.309 128.596 112.286 116.112C112.465 115.945 112.61 115.743 112.744 115.531C120.328 105.799 124.858 93.5835 124.858 80.3278C124.858 79.8244 124.835 79.3323 124.824 78.8401C124.846 78.717 124.858 78.594 124.858 78.4597ZM108.964 49.3533C114.556 56.8256 118.169 65.8529 119.041 75.6632H99.7027C99.4678 64.6448 93.674 54.9799 85.0168 49.3533H108.964ZM70.2527 28.6029C83.4509 29.3076 95.3517 34.979 104.121 43.7714H70.2527V28.6029ZM64.6602 28.6029V43.7714H30.7921C39.5611 34.979 51.4619 29.3076 64.6602 28.6029ZM25.9602 49.3645H50.075C41.4178 54.9911 35.624 64.656 35.3891 75.6744H15.8714C16.755 65.8753 20.3565 56.8368 25.949 49.3645H25.9602ZM25.9602 111.314C19.6631 102.902 15.8825 92.5096 15.6812 81.2675H35.8701C37.5255 90.2052 42.9725 100.552 46.4511 106.492C47.4689 108.237 48.442 109.837 49.3703 111.314H25.9602ZM64.6714 132.075C51.4731 131.37 39.5723 125.699 30.8033 116.907H53.1509C58.2512 123.898 61.8192 126.281 64.6826 127.064V132.075H64.6714ZM67.5571 121.717C65.2306 121.717 60.8685 121.717 50.4776 103.651C46.8202 97.3196 40.6908 85.4287 40.6908 77.095C40.6908 71.748 42.2343 66.759 44.8852 62.553C49.0795 55.6847 56.2938 50.8522 64.6826 49.9461C64.6826 49.9461 66.5952 49.7783 67.5683 49.7783C68.4854 49.7783 70.275 49.9238 70.275 49.9238C78.7309 50.7851 86.0011 55.6287 90.229 62.5418C92.8799 66.759 94.4346 71.748 94.4346 77.1062C94.4346 85.4399 88.3164 97.3308 84.6477 103.662C74.2457 121.728 69.9171 121.728 67.5683 121.728L67.5571 121.717ZM70.2639 132.075V127.108C73.1608 126.381 76.7623 124.032 81.9633 116.907H104.132C95.3629 125.699 83.4621 131.37 70.2639 132.075ZM108.975 111.314H85.7327C86.661 109.848 87.6341 108.249 88.6519 106.504C92.1305 100.564 97.5775 90.2052 99.2329 81.2675H119.254C119.053 92.5096 115.272 102.902 108.975 111.314Z" fill="#FFCB01"/>
<path d="M67.5458 57.9888C78.3057 57.9888 87.0188 66.714 87.0188 77.4639C87.0188 88.2138 70.6776 113.573 67.5458 113.573C64.414 113.573 48.0728 88.2138 48.0728 77.4639C48.0728 66.714 56.797 57.9888 67.5458 57.9888ZM67.5458 87.0617C72.8475 87.0617 77.1425 82.7662 77.1425 77.4639C77.1425 72.1617 72.8475 67.8662 67.5458 67.8662C62.2441 67.8662 57.9491 72.1617 57.9491 77.4639C57.9491 82.7662 62.2441 87.0617 67.5458 87.0617Z" fill="#CC0518"/>
</svg>
