<svg width="512" height="512" viewBox="0 0 512 512" fill="none" xmlns="http://www.w3.org/2000/svg">
<path d="M409.77 217.463C408.884 214.39 407.546 211.66 405.774 209.364C403.984 207.031 401.796 205.115 399.318 203.687C398.613 203.271 397.872 202.891 397.076 202.548V197.449C397.076 167.961 384.96 139.576 362.935 117.519C342.013 96.5465 313.857 82.9867 283.278 79.0454V71.6689C283.278 61.8335 274.852 53.8242 264.508 53.8242C260.259 53.8242 256.099 55.2164 252.772 57.7475C252.23 58.091 251.705 58.4345 251.235 58.7961C250.675 59.1396 250.168 59.4832 249.698 59.8448C249.156 60.1883 248.649 60.5318 248.161 60.8934C247.618 61.2369 247.094 61.5804 246.624 61.942C246.081 62.2855 245.575 62.629 245.087 62.9906C244.544 63.3341 244.02 63.6776 243.55 64.0392C243.007 64.3827 242.501 64.7263 242.013 65.0879C241.47 65.4314 240.946 65.7749 240.476 66.1365C235.105 69.4451 231.904 75.0136 231.904 81.0884V82.8059C229.843 82.3178 227.745 82.0647 225.611 82.0647C219.969 82.0647 214.544 83.8003 209.915 87.0908C209.499 87.3439 209.101 87.6151 208.703 87.8863C208.288 88.1394 207.89 88.4106 207.492 88.6818C207.076 88.9349 206.678 89.2061 206.28 89.4773C205.864 89.7305 205.467 90.0016 205.069 90.2909C204.653 90.544 204.255 90.8152 203.857 91.0864C203.441 91.3395 203.043 91.6107 202.646 91.9C202.23 92.1531 201.832 92.4243 201.434 92.6955C201.018 92.9486 200.62 93.2198 200.222 93.5091C192.248 98.5353 187.492 107.123 187.492 116.506C187.492 120.104 188.468 124.226 190.439 129.036L190.349 129.09C189.951 129.361 189.553 129.614 189.246 129.849L188.812 130.139C188.414 130.41 188.016 130.681 187.691 130.898C180.62 135.707 174.219 141.33 168.703 147.585L168.559 147.748C157.944 159.771 150.783 173.873 147.618 188.825C147.148 188.464 146.678 188.138 146.208 187.849C143.984 186.457 141.434 185.752 138.613 185.752H126.298C123.098 185.752 120.096 186.782 117.817 188.681C117.329 188.988 116.877 189.313 116.443 189.657C115.955 189.964 115.503 190.29 115.069 190.633C114.58 190.94 114.128 191.266 113.694 191.609C113.206 191.917 112.754 192.242 112.32 192.586C111.832 192.893 111.362 193.219 110.946 193.562C110.458 193.869 109.987 194.195 109.571 194.538C109.083 194.846 108.631 195.171 108.197 195.515C107.709 195.822 107.239 196.147 106.823 196.491C103.17 198.733 101 202.692 101 207.176V254.689C101 256.986 101.542 259.119 102.573 260.927C102.085 262.211 101.832 263.567 101.832 264.959V269.045C101.832 273.149 103.875 276.747 107.275 278.645C109.083 279.676 111.127 280.128 113.26 280.182V310.357C113.26 311.984 113.423 313.43 113.731 314.786C114.291 317.227 115.43 319.342 117.112 321.06C118.703 322.705 120.693 323.88 123.025 324.603C124.707 325.11 126.57 325.363 128.722 325.363H144.96C145.485 325.363 145.973 325.363 146.461 325.327C148.649 343.009 156.244 359.624 168.631 373.654L168.74 373.762C172.049 377.505 175.684 381.048 179.59 384.303C178.486 387.665 177.926 390.703 177.926 393.361C177.926 408.367 190.132 420.57 205.141 420.57C210.783 420.57 216.208 418.835 220.855 415.544C221.271 415.291 221.669 415.02 222.049 414.749C222.465 414.496 222.863 414.224 223.26 413.953C223.676 413.7 224.074 413.429 224.472 413.158C224.888 412.905 225.286 412.633 225.684 412.362C226.099 412.109 226.497 411.838 226.895 411.567C227.311 411.314 227.709 411.042 228.107 410.771C228.523 410.518 228.92 410.247 229.318 409.976C229.734 409.723 230.132 409.451 230.53 409.162C231.018 408.855 231.488 408.529 231.94 408.204V440.332C231.94 450.167 240.367 458.176 250.711 458.176C254.96 458.176 259.119 456.784 262.447 454.235C262.989 453.891 263.495 453.548 263.984 453.186C264.526 452.861 265.033 452.499 265.521 452.138C266.063 451.812 266.57 451.451 267.058 451.089C267.6 450.745 268.125 450.402 268.595 450.04C269.137 449.697 269.644 449.353 270.132 448.992C270.675 448.666 271.181 448.305 271.669 447.943C272.212 447.618 272.718 447.256 273.206 446.894C273.767 446.551 274.273 446.207 274.743 445.846C280.114 442.537 283.315 436.969 283.315 430.894V430.478C301.127 426.41 317.51 419.124 332.049 408.873L332.555 408.529C332.935 408.276 333.297 408.023 333.622 407.806L334.092 407.481C334.472 407.228 334.834 406.975 335.159 406.758L335.665 406.414C336.027 406.161 336.389 405.926 336.696 405.709L337.203 405.365C337.564 405.13 337.908 404.895 338.197 404.678L338.703 404.335C339.083 404.082 339.445 403.829 339.77 403.612L340.24 403.286C340.62 403.033 340.982 402.78 341.307 402.545L341.85 402.183C342.193 401.948 342.519 401.731 342.808 401.533L343.315 401.189C343.694 400.936 344.056 400.683 344.382 400.466C377.401 377.848 397.112 342.213 397.112 305.114V260.457C397.474 260.222 397.817 259.969 398.161 259.697C398.631 259.408 399.083 259.083 399.535 258.721C399.788 258.577 400.024 258.414 400.277 258.233C400.295 258.233 400.331 258.233 400.349 258.215C402.881 257.492 405.033 256.244 406.787 254.509C408.649 252.646 409.897 250.386 410.494 247.801C410.837 246.373 411 244.818 411 243.191V226.955C411 223.484 410.602 220.338 409.807 217.59L409.77 217.463ZM252.736 277.452C252.736 277.452 252.826 277.416 252.863 277.397C252.863 277.397 252.863 277.397 252.844 277.397L252.736 277.434V277.452ZM345.702 277.886V287.197H270.982C270.783 285.624 270.222 284.105 269.282 282.604L268.071 280.724C267.42 279.694 266.714 278.862 265.81 278.066C263.803 276.349 261.307 275.499 258.794 275.571C259.264 275.282 259.68 274.975 260.078 274.649C260.566 274.36 261.018 274.035 261.452 273.673C261.958 273.384 262.411 273.058 262.826 272.697C263.333 272.389 263.803 272.064 264.219 271.702C264.743 271.395 265.231 271.052 265.684 270.654C266.497 269.931 267.221 269.081 267.799 268.159L267.998 267.851C271.741 268.105 275.539 267.906 278.957 267.291C281.398 266.839 283.658 266.278 285.665 265.573C286.479 265.284 287.275 264.995 288.034 264.669C288.197 265.429 288.396 266.188 288.649 266.947C289.481 269.587 290.819 272.01 292.646 274.179C294.526 276.403 296.913 278.229 299.752 279.603C302.664 280.995 306.045 281.719 309.788 281.719C311.76 281.719 313.676 281.628 315.503 281.429C317.058 281.267 318.559 281.086 319.987 280.887C321.307 280.706 322.591 280.543 323.857 280.399C324.58 280.308 325.322 280.254 326.063 280.236C327.926 281.737 330.313 282.568 332.863 282.568H335.557C338.251 282.568 340.675 281.7 342.627 280.055C343.116 279.766 343.568 279.44 344.002 279.079C344.49 278.79 344.942 278.464 345.376 278.103C345.485 278.03 345.593 277.976 345.684 277.904L345.702 277.886Z" fill="white"/>
<path d="M404.996 218.965C404.291 216.542 403.26 214.427 401.904 212.673C400.53 210.901 398.884 209.455 397.022 208.37C395.774 207.647 394.4 207.087 392.971 206.617V197.45C392.971 138.872 343.387 89.4965 279.174 83.0601V71.6519C279.174 64.3115 272.79 58.3271 264.924 58.3271C261.434 58.3271 258.233 59.5204 255.756 61.473C255.213 61.7984 254.707 62.142 254.219 62.5216C253.676 62.8471 253.17 63.1906 252.682 63.5703C252.139 63.8957 251.633 64.2392 251.145 64.6189C250.602 64.9443 250.096 65.2878 249.608 65.6675C249.065 65.9929 248.559 66.3364 248.071 66.7161C247.528 67.0416 247.022 67.3851 246.533 67.7647C245.991 68.0902 245.485 68.4337 244.996 68.8134C244.454 69.1388 243.948 69.4823 243.459 69.862C239.499 72.2304 236.859 76.3707 236.859 81.0895V89.3157C233.64 87.562 229.951 86.5676 226.045 86.5676C221.127 86.5676 216.588 88.1586 212.863 90.8163C212.447 91.0694 212.049 91.3406 211.651 91.6118C211.235 91.8649 210.837 92.1361 210.439 92.4073C210.024 92.6604 209.626 92.9316 209.228 93.2028C208.812 93.4559 208.414 93.7271 208.016 93.9983C207.6 94.2515 207.203 94.5226 206.805 94.7938C206.389 95.047 205.991 95.3182 205.593 95.5894C205.177 95.8425 204.779 96.1137 204.382 96.3849C203.966 96.638 203.568 96.9092 203.17 97.1804C196.75 101.194 192.447 108.299 192.447 116.417C192.447 120.738 194.309 125.891 196.533 130.537C196.118 130.827 195.702 131.098 195.304 131.387C194.779 131.749 194.255 132.092 193.731 132.454C193.224 132.797 192.7 133.141 192.212 133.502C191.705 133.846 191.181 134.189 190.675 134.551C183.984 139.107 177.872 144.441 172.483 150.533L172.356 150.66C160.837 163.714 153.731 178.955 151.47 195.263C151.181 195.461 150.91 195.66 150.674 195.877C150.295 196.076 149.987 196.293 149.698 196.528L147.04 193.889C146.118 192.985 145.177 192.207 144.219 191.61C142.718 190.67 140.982 190.2 139.029 190.2H126.714C124.345 190.2 122.338 190.978 120.855 192.298C120.349 192.569 119.897 192.894 119.481 193.274C118.975 193.545 118.523 193.87 118.107 194.25C117.6 194.539 117.148 194.847 116.732 195.226C116.226 195.498 115.774 195.823 115.358 196.203C114.852 196.474 114.4 196.799 113.984 197.179C113.477 197.45 113.025 197.776 112.609 198.155C112.103 198.427 111.651 198.752 111.235 199.132C110.729 199.403 110.277 199.728 109.861 200.108C107.438 201.464 105.937 203.959 105.937 207.105V254.618C105.937 257.782 107.383 259.554 108.414 260.404C107.365 261.687 106.75 263.242 106.75 264.887V268.973C106.75 271.414 107.944 273.548 109.915 274.65C111.018 275.283 112.266 275.591 113.64 275.591C113.984 275.591 114.508 275.554 115.177 275.482C115.647 275.428 116.19 275.356 116.805 275.247L118.197 275.012V310.304C118.197 311.587 118.306 312.708 118.559 313.739C118.92 315.348 119.68 316.74 120.765 317.879C121.814 318.964 123.152 319.759 124.743 320.229C125.991 320.609 127.42 320.79 129.119 320.79H145.358C146.986 320.79 148.36 320.609 149.571 320.265C150.024 320.139 150.457 319.958 150.873 319.777C152.067 338.417 159.409 355.882 172.374 370.563L172.519 370.708C176.425 375.119 180.711 379.133 185.322 382.767C183.875 386.365 182.826 390.071 182.826 393.289C182.826 405.8 193.007 415.979 205.521 415.979C210.439 415.979 214.978 414.388 218.703 411.73C219.119 411.477 219.517 411.206 219.915 410.935C220.331 410.682 220.729 410.411 221.127 410.139C221.542 409.886 221.94 409.615 222.338 409.344C222.754 409.091 223.152 408.82 223.55 408.548C223.966 408.295 224.363 408.024 224.761 407.753C225.177 407.5 225.575 407.229 225.973 406.957C226.389 406.704 226.787 406.433 227.184 406.162C227.6 405.909 227.998 405.638 228.396 405.366C229.463 404.698 230.476 403.938 231.416 403.106C233.206 403.432 235.014 403.703 236.841 403.938V440.278C236.841 447.619 243.224 453.603 251.09 453.603C254.58 453.603 257.781 452.41 260.259 450.457C260.801 450.132 261.307 449.788 261.796 449.409C262.338 449.083 262.845 448.74 263.333 448.36C263.875 448.034 264.382 447.691 264.87 447.311C265.412 446.986 265.919 446.642 266.407 446.263C266.949 445.937 267.456 445.594 267.944 445.214C268.486 444.889 268.993 444.545 269.481 444.165C270.024 443.84 270.53 443.496 271.018 443.117C271.561 442.791 272.067 442.448 272.555 442.068C276.515 439.7 279.174 435.559 279.174 430.841V426.773C297.998 422.958 315.213 415.437 329.879 405.077C330.403 404.716 330.928 404.372 331.434 404.01C331.94 403.667 332.465 403.323 332.971 402.962C333.477 402.618 333.984 402.275 334.49 401.931C335.015 401.57 335.539 401.226 336.045 400.865C336.552 400.521 337.076 400.178 337.582 399.816C338.089 399.472 338.613 399.129 339.119 398.767C339.626 398.424 340.132 398.08 340.638 397.737C341.163 397.375 341.687 397.032 342.194 396.67C373.08 375.517 392.971 342.142 392.971 305.06V258.053C392.971 258.053 393.116 257.927 393.188 257.872C393.694 257.583 394.147 257.258 394.562 256.896C395.069 256.625 395.521 256.281 395.937 255.92C396.443 255.631 396.895 255.305 397.311 254.944C397.817 254.672 398.251 254.329 398.685 253.967C399.192 253.696 399.644 253.353 400.06 252.991C400.566 252.72 401.018 252.376 401.434 252.015C402.139 251.617 402.772 251.147 403.315 250.604C404.454 249.465 405.213 248.073 405.593 246.482C405.828 245.452 405.955 244.331 405.955 243.101V226.866C405.955 223.901 405.629 221.261 404.978 219.001L404.996 218.965ZM213.984 252.901L215.593 256.336C214.996 255.703 214.363 255.088 213.676 254.546C213.369 254.293 213.007 254.076 212.682 253.823C213.098 253.57 213.477 253.298 213.839 252.991C213.875 252.973 213.929 252.937 213.966 252.919L213.984 252.901ZM350.656 291.718H266.063C266.66 290.777 266.986 289.693 266.986 288.536C266.986 287.378 266.642 286.203 265.937 285.082L264.689 283.166C264.273 282.515 263.857 282.009 263.315 281.539C261.271 279.803 258.45 279.64 255.991 281.123C255.774 281.249 255.503 281.394 255.195 281.557C255.087 281.611 254.942 281.665 254.834 281.701C254.834 281.701 254.653 281.701 254.237 281.539C254.237 281.539 254.038 281.448 253.712 281.051C253.514 280.816 253.134 280.237 252.736 278.99C252.519 278.302 252.266 277.037 252.23 274.994C252.266 274.958 252.302 274.922 252.32 274.904C252.736 274.687 253.134 274.433 253.514 274.108C253.586 274.054 253.64 273.981 253.694 273.927C254.11 273.71 254.508 273.457 254.888 273.132C254.96 273.077 255.014 273.005 255.069 272.951C255.485 272.734 255.882 272.481 256.262 272.155C256.335 272.101 256.389 272.029 256.443 271.975C256.859 271.758 257.257 271.505 257.637 271.179C257.709 271.125 257.763 271.053 257.817 270.998C258.233 270.781 258.631 270.528 259.011 270.221C259.083 270.167 259.137 270.094 259.192 270.04C259.608 269.823 260.005 269.57 260.385 269.245C260.458 269.19 260.512 269.118 260.566 269.064C260.982 268.847 261.398 268.594 261.76 268.268C261.832 268.214 261.886 268.142 261.958 268.069C262.374 267.852 262.772 267.599 263.152 267.292C263.64 266.858 264.074 266.352 264.454 265.755L265.575 264.02C265.774 263.73 265.955 263.441 266.118 263.134C270.494 263.694 274.906 263.568 278.613 262.881C280.819 262.483 282.863 261.958 284.635 261.344C286.461 260.711 288.107 259.988 289.535 259.21C290.693 258.578 291.705 257.963 292.664 257.312C292.537 258.198 292.483 259.138 292.483 260.096C292.483 261.886 292.79 263.766 293.387 265.665C294.038 267.726 295.087 269.624 296.515 271.342C297.98 273.077 299.861 274.506 302.121 275.591C304.418 276.693 307.148 277.254 310.204 277.254C312.013 277.254 313.767 277.163 315.43 276.983C316.949 276.82 318.414 276.639 319.807 276.458C321.145 276.278 322.465 276.115 323.749 275.952C324.834 275.826 325.955 275.753 327.076 275.753C327.655 275.753 328.089 275.771 328.396 275.808C329.535 277.254 331.289 278.086 333.297 278.086H335.991C338.143 278.086 339.571 277.2 340.421 276.386C340.982 276.097 341.452 275.753 341.796 275.41C342.356 275.12 342.808 274.777 343.17 274.433C343.731 274.144 344.201 273.801 344.544 273.457C345.105 273.168 345.575 272.824 345.919 272.481C346.479 272.192 346.949 271.848 347.293 271.505C347.854 271.215 348.306 270.872 348.667 270.528C349.228 270.239 349.698 269.895 350.042 269.552C350.259 269.443 350.458 269.317 350.638 269.208V291.754L350.656 291.718Z" fill="#1D161E"/>
<path d="M178.83 201.045H351.09C353.08 201.045 354.707 199.418 354.707 197.429C354.707 179.042 348.016 161.722 335.376 147.384C318.993 128.762 294.797 117.77 268.577 116.848V99.2925C327.655 100.992 375.123 144.365 375.123 197.429C375.123 199.418 376.75 201.045 378.74 201.045C380.729 201.045 382.356 199.418 382.356 197.429C382.356 140.388 331.633 93.8144 268.577 92.0787V71.6306C268.577 69.6418 266.949 68.0146 264.96 68.0146C262.971 68.0146 261.344 69.6418 261.344 71.6306V116.83C235.123 117.77 210.946 128.762 194.562 147.366C181.904 161.722 175.232 179.024 175.232 197.411C175.232 199.4 176.859 201.027 178.848 201.027L178.83 201.045ZM281.524 146.155H268.577V127.678C272.23 131.113 277.166 136.952 281.524 146.155ZM261.344 127.768V146.155H248.486C252.826 137.061 257.727 131.221 261.344 127.768ZM261.344 153.387V193.813H238.577C238.92 176.746 241.741 163.512 245.467 153.387H261.344ZM268.577 153.387H284.544C288.233 163.493 291.018 176.728 291.362 193.813H268.577V153.387ZM292.23 153.387H308.92C316.895 163.493 322.917 176.71 323.658 193.813H298.577C298.251 177.162 295.738 163.891 292.23 153.387ZM289.499 146.155C286.787 139.809 283.767 134.711 280.819 130.697C287.528 134.186 295.34 139.212 302.447 146.155H289.499ZM240.439 146.155H227.148C234.418 138.977 242.447 133.897 249.318 130.408C246.298 134.476 243.206 139.664 240.439 146.155ZM237.709 153.387C234.201 163.891 231.687 177.162 231.362 193.813H206.28C207.022 176.674 212.917 163.457 220.747 153.387H237.709ZM330.91 193.813C330.24 177.216 325.087 163.909 317.908 153.387H331.018C341 165.193 346.606 179.06 347.401 193.813H330.928H330.91ZM312.32 146.155C305.159 137.893 296.895 131.709 289.336 127.226C302.429 130.805 314.345 137.26 324.056 146.155H312.32ZM240.602 127.226C233.043 131.709 224.779 137.893 217.6 146.155H205.864C215.575 137.26 227.492 130.805 240.584 127.226H240.602ZM198.939 153.387H212.031C204.852 163.927 199.698 177.216 199.029 193.813H182.555C183.351 179.06 188.957 165.193 198.939 153.387Z" fill="#FFCB01"/>
<path d="M378.74 256.787C376.75 256.787 375.123 258.415 375.123 260.403V305.024C375.123 358.088 327.655 401.461 268.577 403.16V385.605C294.797 384.665 318.975 373.673 335.358 355.069C348.016 340.713 354.707 323.411 354.707 305.024C354.707 303.035 353.08 301.408 351.09 301.408H178.83C176.841 301.408 175.213 303.035 175.213 305.024C175.213 323.429 181.904 340.731 194.562 355.069C210.946 373.673 235.123 384.683 261.344 385.605V430.804C261.344 432.793 262.971 434.42 264.96 434.42C266.949 434.42 268.577 432.793 268.577 430.804V410.356C331.651 408.639 382.356 362.047 382.356 305.006V260.385C382.356 258.396 380.729 256.769 378.74 256.769V256.787ZM268.577 374.685V356.298H281.434C277.094 365.41 272.193 371.232 268.577 374.685ZM261.344 374.685C257.727 371.232 252.826 365.392 248.486 356.298H261.344V374.685ZM289.499 356.298H302.79C295.521 363.476 287.492 368.556 280.62 372.045C283.64 367.977 286.732 362.789 289.499 356.298ZM292.23 349.066C295.738 338.562 298.251 325.291 298.577 308.64H323.658C322.917 325.779 317.022 338.996 309.192 349.066H292.23ZM284.454 349.066H268.559V308.64H291.344C291 325.707 288.179 338.941 284.454 349.066ZM261.325 349.066H245.448C241.723 338.941 238.92 325.707 238.559 308.64H261.325V349.066ZM237.673 349.066H220.982C213.007 338.96 206.986 325.743 206.244 308.64H231.325C231.651 325.291 234.165 338.562 237.673 349.066ZM240.403 356.298C243.116 362.644 246.136 367.742 249.083 371.774C242.374 368.285 234.562 363.259 227.456 356.298H240.403ZM289.3 375.227C296.859 370.744 305.123 364.56 312.302 356.298H324.038C314.327 365.193 302.41 371.648 289.318 375.227H289.3ZM330.982 349.066H317.872C325.051 338.526 330.204 325.237 330.873 308.64H347.347C346.552 323.393 340.946 337.26 330.964 349.066H330.982ZM199.011 308.64C199.68 325.237 204.834 338.544 212.013 349.066H198.92C188.939 337.26 183.333 323.393 182.537 308.64H199.011ZM217.6 356.298C224.779 364.56 233.025 370.744 240.602 375.245C227.51 371.666 215.593 365.211 205.882 356.298H217.618H217.6Z" fill="#FFCB01"/>
<path d="M371 230.933V240.389C370.693 240.334 370.403 240.262 370.15 240.172C369.336 239.9 368.721 239.575 368.287 239.159C367.89 238.779 367.6 238.364 367.438 237.875C367.221 237.243 367.112 236.592 367.112 235.869C367.112 235.145 367.221 234.44 367.456 233.753C367.636 233.193 367.926 232.723 368.36 232.289C368.794 231.855 369.445 231.475 370.259 231.168C370.494 231.077 370.747 231.005 371.018 230.951L371 230.933Z" fill="#1D161E" stroke="#1D161E" stroke-width="4" stroke-miterlimit="10"/>
<path d="M165.575 195.695C166.027 195.695 166.443 195.84 166.823 196.129C167.184 196.418 167.365 196.979 167.365 197.81V245.288C167.365 247.078 166.515 247.982 164.816 247.982H152.175C151.38 247.982 150.711 247.819 150.186 247.511C149.662 247.204 149.192 246.824 148.776 246.427L130.132 226.955C130.349 230.119 130.566 233.012 130.783 235.651C130.855 236.79 130.946 237.911 131.036 239.032C131.127 240.153 131.217 241.202 131.289 242.16C131.362 243.136 131.434 243.986 131.488 244.709C131.542 245.432 131.597 245.957 131.615 246.282C131.669 246.698 131.615 247.078 131.416 247.439C131.235 247.801 130.819 247.982 130.15 247.982H125.557C125.123 247.982 124.707 247.837 124.345 247.566C123.984 247.295 123.785 246.734 123.785 245.902V198.389C123.785 196.599 124.779 195.695 126.769 195.695H139.083C140.005 195.695 140.783 195.894 141.398 196.274C142.013 196.653 142.646 197.178 143.278 197.81L161.018 215.402C160.783 212.509 160.566 209.851 160.367 207.393C160.277 206.344 160.186 205.313 160.096 204.265C160.005 203.216 159.933 202.24 159.861 201.336C159.788 200.432 159.716 199.636 159.662 198.949C159.608 198.262 159.553 197.756 159.535 197.413C159.481 197.033 159.571 196.635 159.77 196.274C159.969 195.912 160.457 195.713 161.217 195.713H165.593L165.575 195.695Z" fill="white"/>
<path d="M189.282 247.981C187.962 247.981 186.66 247.891 185.322 247.728C183.984 247.565 182.736 247.276 181.543 246.915C180.349 246.535 179.21 246.047 178.179 245.432C177.13 244.835 176.226 244.076 175.467 243.172C174.707 242.268 174.11 241.219 173.658 240.008C173.224 238.797 173.007 237.405 173.007 235.814C173.007 233.698 173.405 231.89 174.219 230.39C175.014 228.889 176.099 227.642 177.438 226.647C178.776 225.653 180.331 224.893 182.085 224.351C183.839 223.827 185.647 223.483 187.51 223.339V220.826C187.51 219.885 187.383 219.126 187.148 218.566C186.913 218.005 186.588 217.589 186.226 217.318C185.864 217.047 185.43 216.866 184.996 216.776C184.544 216.685 184.11 216.649 183.713 216.649C183.224 216.649 182.718 216.721 182.157 216.866C181.615 217.011 181.09 217.192 180.566 217.39C180.06 217.589 179.571 217.824 179.101 218.059C178.649 218.294 178.251 218.511 177.944 218.71C177.799 218.801 177.673 218.891 177.546 218.963C177.42 219.036 177.311 219.072 177.184 219.072C176.967 219.072 176.769 218.909 176.57 218.602L175.34 216.631C175.213 216.468 175.159 216.288 175.159 216.089C175.159 215.89 175.231 215.727 175.394 215.582C175.557 215.438 175.702 215.311 175.846 215.221C176.642 214.66 177.673 214.1 178.902 213.503C180.132 212.925 181.524 212.4 183.08 211.93C184.635 211.46 186.298 211.099 188.089 210.809C189.879 210.52 191.741 210.375 193.658 210.375C195.575 210.375 197.257 210.43 198.993 210.556C200.729 210.683 202.374 210.936 203.911 211.334C205.449 211.731 206.859 212.31 208.143 213.051C209.427 213.793 210.53 214.769 211.452 215.98C212.392 217.192 213.116 218.692 213.622 220.464C214.128 222.236 214.382 224.351 214.382 226.828V243.064C214.382 243.859 214.309 244.582 214.165 245.197C214.02 245.812 213.731 246.336 213.333 246.752C212.917 247.168 212.356 247.475 211.615 247.674C210.892 247.873 209.933 247.981 208.776 247.981H189.336H189.282ZM187.492 227.949C185.738 227.949 184.273 228.166 183.08 228.6C181.886 229.034 180.928 229.612 180.204 230.354C179.481 231.095 178.957 231.926 178.631 232.885C178.324 233.843 178.161 234.837 178.161 235.85C178.161 236.862 178.324 237.839 178.631 238.743C178.939 239.646 179.463 240.442 180.204 241.129C180.928 241.816 181.886 242.34 183.08 242.738C184.273 243.118 185.738 243.317 187.492 243.317V227.949Z" fill="white"/>
<path d="M246.931 226.501L251.995 212.851C252.212 212.218 252.447 211.712 252.7 211.296C252.953 210.899 253.477 210.7 254.255 210.7H258.107C258.812 210.7 259.156 210.899 259.156 211.314C259.156 211.586 259.029 212.02 258.758 212.634L244.816 245.521C244.472 246.353 244.092 246.968 243.676 247.383C243.242 247.799 242.646 247.998 241.868 247.998H236.118C235.611 247.998 235.177 247.926 234.852 247.763C234.508 247.6 234.219 247.401 234.002 247.166C233.767 246.931 233.586 246.66 233.441 246.389C233.297 246.118 233.17 245.847 233.08 245.612L218.071 213.791C217.854 213.339 217.745 212.905 217.745 212.508C217.745 211.875 217.98 211.423 218.432 211.152C218.884 210.881 219.373 210.736 219.861 210.736H237.637C238.233 210.736 238.758 210.754 239.174 210.808C239.59 210.862 239.933 210.953 240.186 211.079C240.458 211.206 240.675 211.369 240.837 211.568C241 211.766 241.145 212.001 241.271 212.291L246.949 226.538L246.931 226.501Z" fill="white"/>
<path d="M295.557 241.944C296.208 241.944 296.805 241.853 297.347 241.672C297.872 241.492 298.36 241.293 298.776 241.076C299.21 240.859 299.553 240.66 299.825 240.479C300.096 240.298 300.313 240.208 300.458 240.208C300.674 240.208 300.837 240.244 300.91 240.316C301 240.389 301.09 240.515 301.217 240.714L302.501 242.685C302.627 242.884 302.682 243.046 302.682 243.191C302.682 243.354 302.627 243.498 302.537 243.589C302.447 243.679 302.338 243.77 302.248 243.842C301.452 244.402 300.458 244.999 299.3 245.65C298.143 246.301 296.787 246.879 295.231 247.422C293.694 247.964 291.94 248.398 290.005 248.76C288.071 249.103 285.937 249.284 283.604 249.284C281.778 249.284 279.969 249.139 278.143 248.85C276.316 248.561 274.58 248.091 272.917 247.476C271.253 246.843 269.698 246.011 268.269 244.999C266.841 243.987 265.593 242.739 264.544 241.257C263.495 239.774 262.664 238.056 262.049 236.104C261.434 234.151 261.145 231.909 261.145 229.378C261.145 226.847 261.452 224.696 262.049 222.725C262.646 220.772 263.477 219.055 264.544 217.572C265.611 216.09 266.841 214.842 268.269 213.812C269.698 212.781 271.253 211.949 272.917 211.298C274.58 210.648 276.316 210.196 278.143 209.888C279.969 209.581 281.778 209.454 283.604 209.454C286.642 209.454 289.463 209.798 292.067 210.467C294.671 211.154 296.949 212.257 298.866 213.812C300.783 215.366 302.284 217.409 303.387 219.922C304.472 222.454 305.033 225.545 305.033 229.215V231.258C305.033 231.692 304.924 232.036 304.707 232.271C304.49 232.506 304.128 232.632 303.622 232.632H288.541C288.74 234.422 289.083 235.923 289.571 237.134C290.06 238.346 290.638 239.304 291.289 240.009C291.94 240.732 292.627 241.22 293.387 241.528C294.146 241.817 294.87 241.962 295.575 241.962L295.557 241.944ZM299.861 228.149C299.861 226.214 299.716 224.605 299.409 223.321C299.101 222.038 298.703 221.025 298.197 220.266C297.691 219.507 297.094 218.964 296.389 218.639C295.702 218.331 294.978 218.169 294.219 218.169C293.658 218.169 293.061 218.277 292.392 218.494C291.723 218.711 291.127 219.181 290.548 219.886C289.969 220.591 289.499 221.604 289.083 222.906C288.685 224.207 288.45 225.961 288.378 228.149H299.843H299.861Z" fill="white"/>
<path d="M331.362 244.346C329.517 244.346 327.691 244.219 325.864 243.966C324.038 243.713 322.302 243.297 320.62 242.755C320.602 242.881 320.584 242.99 320.584 243.098V243.442C320.584 244.165 320.711 244.852 320.946 245.467C321.181 246.082 321.579 246.624 322.085 247.094C322.609 247.564 323.297 247.926 324.146 248.179C324.996 248.432 326.027 248.577 327.239 248.577C328.577 248.577 329.806 248.504 330.946 248.342C332.085 248.179 333.206 248.016 334.291 247.835C335.376 247.655 336.479 247.492 337.582 247.329C338.685 247.166 339.861 247.094 341.09 247.094C342.32 247.094 343.441 247.311 344.58 247.727C345.72 248.161 346.732 248.775 347.618 249.589C348.504 250.403 349.21 251.397 349.752 252.59C350.277 253.784 350.548 255.14 350.548 256.658C350.548 258.014 350.421 259.207 350.168 260.22C349.915 261.232 349.644 262.209 349.391 263.131C349.336 263.257 349.246 263.402 349.119 263.565C348.993 263.727 348.74 263.818 348.378 263.818H345.684C345.34 263.818 345.123 263.745 345.033 263.583C344.942 263.42 344.87 263.293 344.816 263.203C344.363 262.064 342.573 261.485 339.463 261.485C338.125 261.485 336.805 261.558 335.485 261.721C334.165 261.883 332.844 262.046 331.47 262.227C330.096 262.408 328.703 262.57 327.221 262.733C325.756 262.896 324.201 262.968 322.573 262.968C320.313 262.968 318.396 262.588 316.841 261.847C315.286 261.106 314.002 260.148 313.043 258.99C312.067 257.833 311.362 256.568 310.928 255.176C310.494 253.802 310.277 252.482 310.277 251.252C310.277 249.914 310.421 248.703 310.729 247.6C311.036 246.497 311.434 245.503 311.904 244.599C312.392 243.695 312.953 242.9 313.586 242.176C314.219 241.453 314.852 240.802 315.485 240.224C313.495 238.868 311.886 237.096 310.674 234.908C309.463 232.721 308.848 230.045 308.848 226.863C308.848 224.711 309.155 222.759 309.752 221.059C310.349 219.342 311.181 217.841 312.248 216.539C313.297 215.238 314.544 214.135 315.973 213.249C317.401 212.345 318.957 211.622 320.62 211.043C322.284 210.465 324.02 210.067 325.846 209.796C327.673 209.543 329.481 209.416 331.307 209.416C332.935 209.416 334.599 209.506 336.298 209.669C337.998 209.832 339.662 210.157 341.271 210.591C342.881 211.043 344.418 211.64 345.864 212.399C347.311 213.159 348.595 214.117 349.698 215.274L353.676 211.224C353.948 210.953 354.201 210.772 354.454 210.645C354.707 210.519 354.942 210.465 355.159 210.465C355.539 210.465 355.901 210.627 356.208 210.935L357.998 212.833C358.287 213.177 358.432 213.52 358.432 213.882C358.432 214.406 358.125 214.894 357.528 215.328L352.248 219.034C352.736 220.083 353.098 221.222 353.351 222.451C353.604 223.681 353.731 225.055 353.731 226.519C353.731 228.996 353.423 231.166 352.79 232.992C352.157 234.836 351.289 236.409 350.186 237.729C349.083 239.049 347.799 240.115 346.353 240.965C344.906 241.815 343.333 242.484 341.669 242.972C340.005 243.46 338.287 243.804 336.515 243.984C334.743 244.183 333.007 244.274 331.307 244.274L331.362 244.346ZM343.532 222.867C343.405 222.741 343.351 222.56 343.351 222.325C343.351 222.036 343.459 221.783 343.676 221.566L346.009 219.161C345.521 218.799 344.996 218.546 344.418 218.402C343.839 218.257 343.278 218.185 342.682 218.185C342.085 218.185 341.452 218.275 340.729 218.456C340.005 218.637 339.336 219.034 338.685 219.631C338.034 220.246 337.51 221.114 337.058 222.271C336.624 223.428 336.407 224.965 336.407 226.881C336.407 228.797 336.588 230.334 336.931 231.491C337.275 232.648 337.745 233.516 338.342 234.131C338.92 234.728 339.589 235.143 340.349 235.324C341.108 235.523 341.886 235.613 342.682 235.613C343.441 235.613 344.183 235.487 344.906 235.234C345.629 234.981 346.262 234.511 346.823 233.842C347.365 233.173 347.817 232.269 348.161 231.112C348.504 229.955 348.667 228.472 348.667 226.646C348.667 224.82 348.468 223.319 348.052 222.126L345.611 223.844C345.412 223.97 345.231 224.024 345.033 224.024C344.725 224.024 344.454 223.898 344.273 223.663L343.55 222.867H343.532Z" fill="white"/>
<path d="M375.485 247.981C374.165 247.981 372.863 247.891 371.525 247.728C370.186 247.565 368.939 247.276 367.745 246.915C366.552 246.535 365.412 246.047 364.382 245.432C363.333 244.835 362.429 244.076 361.669 243.172C360.91 242.268 360.313 241.219 359.861 240.008C359.427 238.797 359.21 237.405 359.21 235.814C359.21 233.698 359.608 231.89 360.421 230.39C361.217 228.889 362.302 227.642 363.64 226.647C364.978 225.653 366.534 224.893 368.288 224.351C370.042 223.827 371.85 223.483 373.713 223.339V220.826C373.713 219.885 373.586 219.126 373.351 218.566C373.116 218.005 372.79 217.589 372.429 217.318C372.067 217.047 371.633 216.866 371.199 216.776C370.747 216.685 370.313 216.649 369.915 216.649C369.427 216.649 368.921 216.721 368.36 216.866C367.817 217.011 367.293 217.192 366.769 217.39C366.262 217.589 365.774 217.824 365.304 218.059C364.852 218.294 364.454 218.511 364.147 218.71C364.002 218.801 363.875 218.891 363.749 218.963C363.622 219.036 363.514 219.072 363.387 219.072C363.17 219.072 362.971 218.909 362.772 218.602L361.543 216.631C361.416 216.468 361.362 216.288 361.362 216.089C361.362 215.89 361.434 215.727 361.597 215.582C361.76 215.438 361.904 215.311 362.049 215.221C362.845 214.66 363.875 214.1 365.105 213.503C366.335 212.925 367.727 212.4 369.282 211.93C370.837 211.46 372.501 211.099 374.291 210.809C376.081 210.52 377.944 210.375 379.861 210.375C381.778 210.375 383.459 210.43 385.195 210.556C386.931 210.683 388.577 210.936 390.114 211.334C391.651 211.731 393.062 212.31 394.346 213.051C395.629 213.793 396.732 214.769 397.655 215.98C398.595 217.192 399.318 218.692 399.825 220.464C400.331 222.236 400.584 224.351 400.584 226.828V243.064C400.584 243.859 400.512 244.582 400.367 245.197C400.223 245.812 399.933 246.336 399.535 246.752C399.119 247.168 398.559 247.475 397.817 247.674C397.094 247.873 396.136 247.981 394.978 247.981H375.539H375.485ZM373.694 227.949C371.94 227.949 370.476 228.166 369.282 228.6C368.089 229.034 367.13 229.612 366.407 230.354C365.684 231.095 365.159 231.926 364.834 232.885C364.526 233.843 364.364 234.837 364.364 235.85C364.364 236.862 364.526 237.839 364.834 238.743C365.141 239.646 365.666 240.442 366.407 241.129C367.13 241.816 368.089 242.34 369.282 242.738C370.476 243.118 371.94 243.317 373.694 243.317V227.949Z" fill="white"/>
<path d="M136.063 259.679C134.49 260.023 133.025 260.33 131.687 260.583C131.109 260.71 130.53 260.818 129.951 260.909C129.373 260.999 128.848 261.089 128.324 261.18C127.799 261.27 127.365 261.324 126.967 261.379C126.57 261.433 126.262 261.451 126.081 261.451C125.665 261.451 125.322 261.379 125.051 261.216C124.761 261.053 124.635 260.746 124.635 260.258V256.172C124.635 255.72 124.834 255.286 125.213 254.924C125.593 254.563 126.208 254.364 127.04 254.364H172.23C173.061 254.364 173.658 254.545 174.056 254.924C174.454 255.304 174.635 255.72 174.635 256.172V260.258C174.635 260.746 174.49 261.071 174.219 261.216C173.948 261.379 173.586 261.451 173.188 261.451C172.971 261.451 172.664 261.433 172.284 261.379C171.904 261.324 171.452 261.27 170.928 261.18C170.421 261.089 169.879 260.999 169.3 260.909C168.722 260.818 168.161 260.71 167.564 260.583C166.226 260.312 164.779 260.023 163.188 259.679V301.66C163.188 302.492 163.116 303.215 162.971 303.83C162.826 304.444 162.555 304.969 162.157 305.403C161.76 305.837 161.199 306.144 160.494 306.343C159.788 306.542 158.884 306.65 157.799 306.65H141.561C140.421 306.65 139.499 306.542 138.776 306.325C138.052 306.108 137.492 305.8 137.094 305.385C136.696 304.969 136.425 304.444 136.28 303.812C136.136 303.179 136.063 302.438 136.063 301.588V259.679Z" fill="#004BB2" stroke="#004BB2" stroke-miterlimit="10"/>
<path d="M206.967 286.87C207.618 286.87 208.215 286.78 208.758 286.599C209.282 286.418 209.77 286.219 210.186 286.002C210.62 285.785 210.964 285.586 211.235 285.406C211.506 285.225 211.723 285.134 211.868 285.134C212.085 285.134 212.248 285.171 212.32 285.243C212.411 285.315 212.501 285.442 212.628 285.641L213.911 287.611C214.038 287.81 214.092 287.973 214.092 288.118C214.092 288.28 214.038 288.425 213.948 288.515C213.857 288.606 213.749 288.696 213.658 288.768C212.863 289.329 211.868 289.926 210.711 290.576C209.553 291.227 208.197 291.806 206.642 292.348C205.105 292.891 203.351 293.324 201.416 293.686C199.481 294.03 197.347 294.21 195.014 294.21C193.188 294.21 191.38 294.066 189.553 293.776C187.727 293.487 185.991 293.017 184.327 292.402C182.664 291.77 181.109 290.938 179.68 289.926C178.251 288.913 177.004 287.666 175.955 286.183C174.906 284.7 174.074 282.983 173.459 281.03C172.845 279.078 172.555 276.836 172.555 274.305C172.555 271.774 172.863 269.622 173.459 267.651C174.056 265.699 174.888 263.981 175.955 262.499C177.022 261.016 178.251 259.769 179.68 258.738C181.109 257.708 182.664 256.876 184.327 256.225C185.991 255.574 187.727 255.122 189.553 254.815C191.38 254.507 193.188 254.381 195.014 254.381C198.052 254.381 200.873 254.724 203.477 255.393C206.081 256.08 208.36 257.183 210.277 258.738C212.194 260.293 213.694 262.336 214.797 264.849C215.882 267.38 216.443 270.472 216.443 274.142V276.185C216.443 276.619 216.335 276.962 216.118 277.197C215.901 277.432 215.539 277.559 215.033 277.559H199.951C200.15 279.349 200.494 280.85 200.982 282.061C201.47 283.272 202.049 284.23 202.7 284.936C203.351 285.659 204.038 286.147 204.797 286.454C205.557 286.743 206.28 286.888 206.986 286.888L206.967 286.87ZM211.271 273.075C211.271 271.141 211.127 269.532 210.819 268.248C210.512 266.964 210.114 265.952 209.608 265.193C209.101 264.433 208.505 263.891 207.799 263.565C207.112 263.258 206.389 263.095 205.629 263.095C205.069 263.095 204.472 263.204 203.803 263.421C203.134 263.638 202.537 264.108 201.958 264.813C201.38 265.518 200.91 266.53 200.494 267.832C200.096 269.134 199.861 270.888 199.788 273.075H211.253H211.271Z" fill="#004BB2" stroke="#004BB2" stroke-miterlimit="10"/>
<path d="M246.769 274.486C246.769 276.945 247.022 278.97 247.546 280.597C248.071 282.224 248.722 283.526 249.535 284.484C250.331 285.442 251.199 286.111 252.121 286.509C253.043 286.888 253.911 287.087 254.707 287.087C255.322 287.087 255.864 287.015 256.389 286.852C256.895 286.69 257.347 286.509 257.745 286.31C258.143 286.111 258.468 285.93 258.722 285.768C258.993 285.605 259.192 285.532 259.336 285.532C259.553 285.532 259.716 285.569 259.788 285.641C259.879 285.713 259.969 285.84 260.096 286.039L261.38 288.009C261.506 288.208 261.561 288.371 261.561 288.516C261.561 288.678 261.506 288.823 261.416 288.913C261.326 289.004 261.217 289.094 261.127 289.166C260.331 289.727 259.336 290.306 258.179 290.938C257.022 291.571 255.665 292.113 254.11 292.638C252.555 293.162 250.855 293.578 248.957 293.921C247.058 294.265 244.996 294.428 242.772 294.428C240.946 294.428 239.137 294.283 237.311 293.994C235.485 293.704 233.749 293.234 232.085 292.565C230.421 291.915 228.866 291.065 227.438 290.034C226.009 289.004 224.761 287.756 223.712 286.292C222.664 284.827 221.832 283.11 221.217 281.157C220.602 279.205 220.313 276.981 220.313 274.522C220.313 272.063 220.62 269.839 221.217 267.869C221.814 265.916 222.646 264.198 223.712 262.734C224.779 261.27 226.009 260.022 227.438 258.992C228.866 257.961 230.421 257.111 232.085 256.46C233.749 255.809 235.485 255.339 237.311 255.032C239.137 254.725 240.946 254.598 242.772 254.598C244.761 254.598 246.678 254.743 248.523 255.05C250.367 255.357 252.067 255.755 253.64 256.261C255.213 256.768 256.606 257.31 257.872 257.907C259.137 258.503 260.132 259.082 260.91 259.679C261 259.751 261.109 259.841 261.199 259.932C261.289 260.022 261.344 260.167 261.344 260.329C261.344 260.492 261.289 260.673 261.163 260.836L259.897 262.806C259.77 263.005 259.68 263.132 259.59 263.204C259.499 263.276 259.354 263.313 259.137 263.313C258.993 263.313 258.794 263.24 258.559 263.096C258.324 262.951 258.016 262.788 257.655 262.607C257.293 262.427 256.859 262.264 256.371 262.101C255.882 261.938 255.34 261.866 254.725 261.866C253.929 261.866 253.061 262.065 252.139 262.463C251.217 262.861 250.349 263.548 249.553 264.524C248.758 265.5 248.089 266.802 247.564 268.429C247.04 270.056 246.787 272.099 246.787 274.54L246.769 274.486Z" fill="#004BB2" stroke="#004BB2" stroke-miterlimit="10"/>
<path d="M216.443 399.762C208.902 399.762 202.79 393.652 202.79 386.112C202.79 378.573 214.237 360.801 216.443 360.801C218.649 360.801 230.096 378.573 230.096 386.112C230.096 393.652 223.984 399.762 216.443 399.762ZM216.443 379.387C212.718 379.387 209.716 382.406 209.716 386.112C209.716 389.819 212.736 392.838 216.443 392.838C220.15 392.838 223.17 389.819 223.17 386.112C223.17 382.406 220.15 379.387 216.443 379.387Z" fill="#1D161E" stroke="#1D161E" stroke-width="10" stroke-miterlimit="10"/>
<path d="M226.063 95.6099C218.523 95.6099 212.41 101.721 212.41 109.26C212.41 116.799 223.857 134.572 226.063 134.572C228.269 134.572 239.716 116.799 239.716 109.26C239.716 101.721 233.604 95.6099 226.063 95.6099ZM226.063 115.986C222.338 115.986 219.336 112.966 219.336 109.26C219.336 105.554 222.356 102.534 226.063 102.534C229.77 102.534 232.79 105.554 232.79 109.26C232.79 112.966 229.77 115.986 226.063 115.986Z" fill="#1D161E" stroke="#1D161E" stroke-width="10" stroke-miterlimit="10"/>
<path d="M330.837 362.137C323.297 362.137 317.184 356.026 317.184 348.487C317.184 340.947 328.631 323.175 330.837 323.175C333.043 323.175 344.49 340.947 344.49 348.487C344.49 356.026 338.378 362.137 330.837 362.137ZM330.837 341.761C327.112 341.761 324.11 344.78 324.11 348.487C324.11 352.193 327.13 355.212 330.837 355.212C334.544 355.212 337.564 352.193 337.564 348.487C337.564 344.78 334.544 341.761 330.837 341.761Z" fill="#1D161E" stroke="#1D161E" stroke-width="10" stroke-miterlimit="10"/>
<path d="M226.063 95.6099C218.523 95.6099 212.41 101.721 212.41 109.26C212.41 116.799 223.857 134.572 226.063 134.572C228.269 134.572 239.716 116.799 239.716 109.26C239.716 101.721 233.604 95.6099 226.063 95.6099ZM226.063 115.986C222.338 115.986 219.336 112.966 219.336 109.26C219.336 105.554 222.356 102.534 226.063 102.534C229.77 102.534 232.79 105.554 232.79 109.26C232.79 112.966 229.77 115.986 226.063 115.986Z" fill="#CC0518"/>
<path d="M330.837 362.137C323.297 362.137 317.184 356.026 317.184 348.487C317.184 340.947 328.631 323.175 330.837 323.175C333.043 323.175 344.49 340.947 344.49 348.487C344.49 356.026 338.378 362.137 330.837 362.137ZM330.837 341.761C327.112 341.761 324.11 344.78 324.11 348.487C324.11 352.193 327.13 355.212 330.837 355.212C334.544 355.212 337.564 352.193 337.564 348.487C337.564 344.78 334.544 341.761 330.837 341.761Z" fill="#CC0518"/>
<path d="M216.443 399.762C208.902 399.762 202.79 393.652 202.79 386.112C202.79 378.573 214.237 360.801 216.443 360.801C218.649 360.801 230.096 378.573 230.096 386.112C230.096 393.652 223.984 399.762 216.443 399.762ZM216.443 379.387C212.718 379.387 209.716 382.406 209.716 386.112C209.716 389.819 212.736 392.838 216.443 392.838C220.15 392.838 223.17 389.819 223.17 386.112C223.17 382.406 220.15 379.387 216.443 379.387Z" fill="#CC0518"/>
</svg>
